<svg width="16" height="16" fill="none" xmlns="http://www.w3.org/2000/svg"><path fill-rule="evenodd" clip-rule="evenodd" d="M5.66 3.875l.234 2.792h4.213l.232-2.792a2.347 2.347 0 10-4.678 0zm5.784 2.792l.224-2.68a3.68 3.68 0 10-7.336 0l.224 2.68H0L.19 8l.816 5.71A2.667 2.667 0 003.646 16h8.708a2.667 2.667 0 002.64-2.29L15.81 8 16 6.667h-4.556zM11.334 8h-.054l-.222 2.667h3.024L14.462 8h-3.129zM9.941 8H6.058l.222 2.667h3.44L9.942 8zM4.72 8H1.537l.381 2.667h3.024L4.72 8zm1.893 6.667L6.391 12H9.61l-.222 2.667H6.613zM10.947 12l-.222 2.667h1.629c.663 0 1.226-.488 1.32-1.145L13.89 12h-2.944zm-5.894 0l.222 2.667H3.646a1.333 1.333 0 01-1.32-1.145L2.11 12h2.944z" fill="#333"/></svg>